<svg xmlns="http://www.w3.org/2000/svg" xmlns:xlink="http://www.w3.org/1999/xlink" version="1.1" id="Layer_1" x="0px" y="0px" style="enable-background:new 0 0 2000 2000;" xml:space="preserve" viewBox="388.09 388.15 1223.82 1223.69">
<style type="text/css">
	.st0{fill:url(#SVGID_1_);}
	.st1{fill:url(#SVGID_2_);}
	.st2{fill:url(#SVGID_3_);}
	.st3{fill:url(#SVGID_4_);}
	.st4{fill:url(#SVGID_5_);}
	.st5{fill:url(#SVGID_6_);}
</style>
<g>
	<linearGradient id="SVGID_1_" gradientUnits="userSpaceOnUse" x1="1000" y1="1211.1857" x2="1000" y2="388.155">
		<stop offset="0.1" style="stop-color:#FDBA74"/>
		<stop offset="1" style="stop-color:#FEF08A"/>
	</linearGradient>
	<path class="st0" d="M1574.49,1211.19c24.19-65.81,37.42-136.92,37.42-211.13c0-337.95-273.96-611.91-611.91-611.91   c-337.95,0-611.91,273.96-611.91,611.91c0,74.2,13.23,145.31,37.42,211.13H1574.49z"/>
	<g>
		<g>
			
				<linearGradient id="SVGID_2_" gradientUnits="userSpaceOnUse" x1="-454.5885" y1="-31689.5742" x2="-454.5885" y2="-32263.7695" gradientTransform="matrix(1 0 0 1 1223.2922 32888.5078)">
				<stop offset="0" style="stop-color:#4D4D4D"/>
				<stop offset="1" style="stop-color:#B3B3B3"/>
			</linearGradient>
			<path class="st1" d="M999.98,1198.93h-58.95c10.52-75.19,22.82-149.97-21.37-198.18c-44.19-48.21-138.35-60.06-231.47-81.68     c-85.74-19.91-145.27-87.88-149.9-170.74c-4.52-80.89,9.15-120.38,26.55-123.4c17.41-3.01,18.15,27.96,40.47,60.99     c22.32,33.03,101.85,30.95,179.51,30.95s177.64,13.39,215.14,91.95L999.98,1198.93z"/>
		</g>
		<g>
			
				<linearGradient id="SVGID_3_" gradientUnits="userSpaceOnUse" x1="-11291.083" y1="-23506.5801" x2="-11291.083" y2="-24080.7773" gradientTransform="matrix(-1 0 0 1 -10059.915 24705.4141)">
				<stop offset="0" style="stop-color:#4D4D4D"/>
				<stop offset="1" style="stop-color:#B3B3B3"/>
			</linearGradient>
			<path class="st2" d="M999.89,1198.83h58.95c-10.52-75.19-22.82-149.97,21.37-198.18c44.19-48.21,138.35-60.06,231.47-81.68     c85.74-19.91,145.27-87.88,149.9-170.74c4.52-80.89-9.15-120.38-26.55-123.4c-17.41-3.01-18.15,27.96-40.47,60.99     c-22.32,33.03-101.85,30.95-179.51,30.95s-177.64,13.39-215.14,91.95L999.89,1198.83z"/>
		</g>
	</g>
	<g>
		<linearGradient id="SVGID_4_" gradientUnits="userSpaceOnUse" x1="856.5941" y1="1385.5336" x2="856.5941" y2="1150.5809">
			<stop offset="0" style="stop-color:#0083E2"/>
			<stop offset="1" style="stop-color:#00EFF5"/>
		</linearGradient>
		<path class="st3" d="M1291.14,1198.83c-187.56,0-288.43,103.32-404.29,143.12c-145.03,49.89-276.43,57.52-379.75,19.9    c-36.26-49.34-65.16-104.14-85.06-163.3c78.24-1.36,86.96-47.98,141.21-47.98c55.34,0,63.25,48.25,145.58,48.25    c82.33,0,90.24-48.25,145.58-48.25c55.34,0,63.25,48.25,145.58,48.25c82.33,0,90.24-48.25,145.58-48.25    C1200.91,1150.58,1208.81,1198.83,1291.14,1198.83z"/>
		<linearGradient id="SVGID_5_" gradientUnits="userSpaceOnUse" x1="1042.5168" y1="1574.4968" x2="1042.5168" y2="1150.5809">
			<stop offset="0" style="stop-color:#0083E2"/>
			<stop offset="1" style="stop-color:#00EFF5"/>
		</linearGradient>
		<path class="st4" d="M1577.93,1198.56c-13.9,41.71-32.71,81.51-55.34,118.86c-157.03-19.08-319.51,68.15-455.54,153.21    c-90.78,56.7-177.2,95.42-277.25,103.87c-114.23-41.44-212.1-116.41-282.7-212.64c103.32,37.62,234.72,29.99,379.75-19.9    c115.86-39.8,216.73-143.12,404.29-143.12c82.33,0,90.24-48.25,145.58-48.25C1490.97,1150.58,1499.69,1197.2,1577.93,1198.56z"/>
		<linearGradient id="SVGID_6_" gradientUnits="userSpaceOnUse" x1="1156.1976" y1="1611.845" x2="1156.1976" y2="1314.7678">
			<stop offset="0" style="stop-color:#0083E2"/>
			<stop offset="1" style="stop-color:#00EFF5"/>
		</linearGradient>
		<path class="st5" d="M1522.59,1317.42c-106.86,176.38-300.7,294.42-522.6,294.42c-73.88,0-144.76-13.08-210.19-37.35    c100.05-8.45,186.47-47.16,277.25-103.87C1203.09,1385.57,1365.57,1298.34,1522.59,1317.42z"/>
	</g>
</g>
</svg>